<mxfile host="app.diagrams.net" modified="2023-12-01T02:05:46.609Z" agent="Mozilla/5.0 (X11; Ubuntu; Linux x86_64; rv:109.0) Gecko/20100101 Firefox/119.0" etag="LSwjyCphf_vHvz90JSDE" version="22.1.5" type="github">
  <diagram id="R2lEEEUBdFMjLlhIrx00" name="Page-1">
    <mxGraphModel dx="2548" dy="1420" grid="1" gridSize="10" guides="1" tooltips="1" connect="1" arrows="0" fold="1" page="1" pageScale="1" pageWidth="1920" pageHeight="1200" math="0" shadow="0" extFonts="Permanent Marker^https://fonts.googleapis.com/css?family=Permanent+Marker">
      <root>
        <mxCell id="0" />
        <mxCell id="1" parent="0" />
        <mxCell id="kjcYXcIze7tY7zo2vyRR-1" value="Clientes" style="rounded=0;whiteSpace=wrap;html=1;" parent="1" vertex="1">
          <mxGeometry x="230" y="570" width="120" height="60" as="geometry" />
        </mxCell>
        <mxCell id="kjcYXcIze7tY7zo2vyRR-16" style="edgeStyle=orthogonalEdgeStyle;rounded=0;orthogonalLoop=1;jettySize=auto;html=1;shape=link;" parent="1" source="kjcYXcIze7tY7zo2vyRR-2" target="kjcYXcIze7tY7zo2vyRR-1" edge="1">
          <mxGeometry relative="1" as="geometry" />
        </mxCell>
        <mxCell id="kjcYXcIze7tY7zo2vyRR-2" value="ID" style="ellipse;whiteSpace=wrap;html=1;flipV=0;fontSize=10;fontStyle=4" parent="1" vertex="1">
          <mxGeometry x="40" y="300" width="70" height="40" as="geometry" />
        </mxCell>
        <mxCell id="kjcYXcIze7tY7zo2vyRR-17" style="edgeStyle=orthogonalEdgeStyle;rounded=0;orthogonalLoop=1;jettySize=auto;html=1;shape=link;" parent="1" source="kjcYXcIze7tY7zo2vyRR-3" target="kjcYXcIze7tY7zo2vyRR-1" edge="1">
          <mxGeometry relative="1" as="geometry" />
        </mxCell>
        <mxCell id="kjcYXcIze7tY7zo2vyRR-3" value="Nome" style="ellipse;whiteSpace=wrap;html=1;flipV=0;fontSize=10;" parent="1" vertex="1">
          <mxGeometry x="40" y="362" width="70" height="40" as="geometry" />
        </mxCell>
        <mxCell id="kjcYXcIze7tY7zo2vyRR-18" style="edgeStyle=orthogonalEdgeStyle;rounded=0;orthogonalLoop=1;jettySize=auto;html=1;shape=link;" parent="1" source="kjcYXcIze7tY7zo2vyRR-4" target="kjcYXcIze7tY7zo2vyRR-1" edge="1">
          <mxGeometry relative="1" as="geometry" />
        </mxCell>
        <mxCell id="kjcYXcIze7tY7zo2vyRR-4" value="Sobrenome" style="ellipse;whiteSpace=wrap;html=1;flipV=0;fontSize=10;" parent="1" vertex="1">
          <mxGeometry x="40" y="424" width="70" height="40" as="geometry" />
        </mxCell>
        <mxCell id="kjcYXcIze7tY7zo2vyRR-19" style="edgeStyle=orthogonalEdgeStyle;rounded=0;orthogonalLoop=1;jettySize=auto;html=1;shape=link;" parent="1" source="kjcYXcIze7tY7zo2vyRR-5" target="kjcYXcIze7tY7zo2vyRR-1" edge="1">
          <mxGeometry relative="1" as="geometry" />
        </mxCell>
        <mxCell id="kjcYXcIze7tY7zo2vyRR-5" value="Sexo" style="ellipse;whiteSpace=wrap;html=1;flipV=0;fontSize=10;" parent="1" vertex="1">
          <mxGeometry x="40" y="487" width="70" height="40" as="geometry" />
        </mxCell>
        <mxCell id="kjcYXcIze7tY7zo2vyRR-20" style="edgeStyle=orthogonalEdgeStyle;rounded=0;orthogonalLoop=1;jettySize=auto;html=1;shape=link;" parent="1" source="kjcYXcIze7tY7zo2vyRR-6" target="kjcYXcIze7tY7zo2vyRR-1" edge="1">
          <mxGeometry relative="1" as="geometry" />
        </mxCell>
        <mxCell id="kjcYXcIze7tY7zo2vyRR-6" value="CPF" style="ellipse;whiteSpace=wrap;html=1;flipV=0;fontSize=10;" parent="1" vertex="1">
          <mxGeometry x="40" y="549" width="70" height="40" as="geometry" />
        </mxCell>
        <mxCell id="kjcYXcIze7tY7zo2vyRR-21" style="edgeStyle=orthogonalEdgeStyle;rounded=0;orthogonalLoop=1;jettySize=auto;html=1;shape=link;" parent="1" source="kjcYXcIze7tY7zo2vyRR-8" target="kjcYXcIze7tY7zo2vyRR-1" edge="1">
          <mxGeometry relative="1" as="geometry" />
        </mxCell>
        <mxCell id="kjcYXcIze7tY7zo2vyRR-8" value="&lt;div style=&quot;font-size: 10px;&quot;&gt;Data De&lt;/div&gt;&lt;div style=&quot;font-size: 10px;&quot;&gt;Nascimento&lt;/div&gt;" style="ellipse;whiteSpace=wrap;html=1;flipV=0;fontSize=10;" parent="1" vertex="1">
          <mxGeometry x="40" y="611" width="70" height="40" as="geometry" />
        </mxCell>
        <mxCell id="kjcYXcIze7tY7zo2vyRR-22" style="edgeStyle=orthogonalEdgeStyle;rounded=0;orthogonalLoop=1;jettySize=auto;html=1;shape=link;" parent="1" source="kjcYXcIze7tY7zo2vyRR-9" target="kjcYXcIze7tY7zo2vyRR-1" edge="1">
          <mxGeometry relative="1" as="geometry" />
        </mxCell>
        <mxCell id="kjcYXcIze7tY7zo2vyRR-9" value="Telefone" style="ellipse;whiteSpace=wrap;html=1;flipV=0;fontSize=10;" parent="1" vertex="1">
          <mxGeometry x="40" y="673" width="70" height="40" as="geometry" />
        </mxCell>
        <mxCell id="kjcYXcIze7tY7zo2vyRR-23" style="edgeStyle=orthogonalEdgeStyle;rounded=0;orthogonalLoop=1;jettySize=auto;html=1;shape=link;" parent="1" source="kjcYXcIze7tY7zo2vyRR-10" target="kjcYXcIze7tY7zo2vyRR-1" edge="1">
          <mxGeometry relative="1" as="geometry" />
        </mxCell>
        <mxCell id="kjcYXcIze7tY7zo2vyRR-10" value="E-mail" style="ellipse;whiteSpace=wrap;html=1;flipV=0;fontSize=10;" parent="1" vertex="1">
          <mxGeometry x="40" y="736" width="70" height="40" as="geometry" />
        </mxCell>
        <mxCell id="kjcYXcIze7tY7zo2vyRR-24" style="edgeStyle=orthogonalEdgeStyle;rounded=0;orthogonalLoop=1;jettySize=auto;html=1;shape=link;" parent="1" source="kjcYXcIze7tY7zo2vyRR-11" target="kjcYXcIze7tY7zo2vyRR-1" edge="1">
          <mxGeometry relative="1" as="geometry" />
        </mxCell>
        <mxCell id="kjcYXcIze7tY7zo2vyRR-11" value="Criado Em" style="ellipse;whiteSpace=wrap;html=1;flipV=0;fontSize=10;" parent="1" vertex="1">
          <mxGeometry x="40" y="798" width="70" height="40" as="geometry" />
        </mxCell>
        <mxCell id="kjcYXcIze7tY7zo2vyRR-25" style="edgeStyle=orthogonalEdgeStyle;rounded=0;orthogonalLoop=1;jettySize=auto;html=1;shape=link;" parent="1" source="kjcYXcIze7tY7zo2vyRR-12" target="kjcYXcIze7tY7zo2vyRR-1" edge="1">
          <mxGeometry relative="1" as="geometry" />
        </mxCell>
        <mxCell id="kjcYXcIze7tY7zo2vyRR-12" value="Atualizado Em" style="ellipse;whiteSpace=wrap;html=1;flipV=0;fontSize=10;" parent="1" vertex="1">
          <mxGeometry x="40" y="860" width="70" height="40" as="geometry" />
        </mxCell>
        <mxCell id="kjcYXcIze7tY7zo2vyRR-42" style="edgeStyle=orthogonalEdgeStyle;shape=link;rounded=0;orthogonalLoop=1;jettySize=auto;html=1;exitX=1;exitY=0.5;exitDx=0;exitDy=0;entryX=0;entryY=0.5;entryDx=0;entryDy=0;" parent="1" source="kjcYXcIze7tY7zo2vyRR-27" target="kjcYXcIze7tY7zo2vyRR-39" edge="1">
          <mxGeometry relative="1" as="geometry" />
        </mxCell>
        <mxCell id="kjcYXcIze7tY7zo2vyRR-27" value="ID" style="ellipse;whiteSpace=wrap;html=1;flipV=1;fontSize=10;fontStyle=4;flipH=0;" parent="1" vertex="1">
          <mxGeometry x="200" y="980" width="70" height="40" as="geometry" />
        </mxCell>
        <mxCell id="kjcYXcIze7tY7zo2vyRR-43" style="edgeStyle=orthogonalEdgeStyle;shape=link;rounded=0;orthogonalLoop=1;jettySize=auto;html=1;exitX=1;exitY=0.5;exitDx=0;exitDy=0;entryX=0;entryY=0.5;entryDx=0;entryDy=0;" parent="1" source="kjcYXcIze7tY7zo2vyRR-28" target="kjcYXcIze7tY7zo2vyRR-39" edge="1">
          <mxGeometry relative="1" as="geometry" />
        </mxCell>
        <mxCell id="kjcYXcIze7tY7zo2vyRR-28" value="ID. Cliente" style="ellipse;whiteSpace=wrap;html=1;flipV=1;fontSize=10;fontStyle=0;flipH=0;" parent="1" vertex="1">
          <mxGeometry x="200" y="1040" width="70" height="40" as="geometry" />
        </mxCell>
        <mxCell id="kjcYXcIze7tY7zo2vyRR-44" style="edgeStyle=orthogonalEdgeStyle;shape=link;rounded=0;orthogonalLoop=1;jettySize=auto;html=1;exitX=1;exitY=0;exitDx=0;exitDy=0;entryX=0;entryY=0.5;entryDx=0;entryDy=0;" parent="1" source="kjcYXcIze7tY7zo2vyRR-29" target="kjcYXcIze7tY7zo2vyRR-39" edge="1">
          <mxGeometry relative="1" as="geometry">
            <Array as="points">
              <mxPoint x="320" y="1106" />
              <mxPoint x="320" y="1060" />
              <mxPoint x="385" y="1060" />
              <mxPoint x="385" y="1000" />
            </Array>
          </mxGeometry>
        </mxCell>
        <mxCell id="kjcYXcIze7tY7zo2vyRR-29" value="CEP" style="ellipse;whiteSpace=wrap;html=1;flipV=1;fontSize=10;fontStyle=0;flipH=0;" parent="1" vertex="1">
          <mxGeometry x="200" y="1100" width="70" height="40" as="geometry" />
        </mxCell>
        <mxCell id="kjcYXcIze7tY7zo2vyRR-30" value="Logradouro" style="ellipse;whiteSpace=wrap;html=1;flipV=1;fontSize=10;fontStyle=0;flipH=0;" parent="1" vertex="1">
          <mxGeometry x="291" y="1100" width="70" height="40" as="geometry" />
        </mxCell>
        <mxCell id="xNAhnkP9YiVKi_0hHKyy-1" style="edgeStyle=none;shape=link;rounded=0;orthogonalLoop=1;jettySize=auto;html=1;exitX=0.5;exitY=0;exitDx=0;exitDy=0;entryX=0;entryY=0.5;entryDx=0;entryDy=0;" edge="1" parent="1" source="kjcYXcIze7tY7zo2vyRR-31" target="kjcYXcIze7tY7zo2vyRR-39">
          <mxGeometry relative="1" as="geometry" />
        </mxCell>
        <mxCell id="kjcYXcIze7tY7zo2vyRR-31" value="NÃºmero" style="ellipse;whiteSpace=wrap;html=1;flipV=1;fontSize=10;fontStyle=0;flipH=0;" parent="1" vertex="1">
          <mxGeometry x="383" y="1100" width="70" height="40" as="geometry" />
        </mxCell>
        <mxCell id="xNAhnkP9YiVKi_0hHKyy-2" style="edgeStyle=none;shape=link;rounded=0;orthogonalLoop=1;jettySize=auto;html=1;exitX=0.5;exitY=0;exitDx=0;exitDy=0;" edge="1" parent="1" source="kjcYXcIze7tY7zo2vyRR-32" target="kjcYXcIze7tY7zo2vyRR-39">
          <mxGeometry relative="1" as="geometry" />
        </mxCell>
        <mxCell id="kjcYXcIze7tY7zo2vyRR-32" value="Bairro" style="ellipse;whiteSpace=wrap;html=1;flipV=1;fontSize=10;fontStyle=0;flipH=0;" parent="1" vertex="1">
          <mxGeometry x="474" y="1100" width="70" height="40" as="geometry" />
        </mxCell>
        <mxCell id="xNAhnkP9YiVKi_0hHKyy-4" style="edgeStyle=none;shape=link;rounded=0;orthogonalLoop=1;jettySize=auto;html=1;exitX=0.5;exitY=0;exitDx=0;exitDy=0;entryX=1;entryY=0.5;entryDx=0;entryDy=0;" edge="1" parent="1" source="kjcYXcIze7tY7zo2vyRR-33" target="kjcYXcIze7tY7zo2vyRR-39">
          <mxGeometry relative="1" as="geometry" />
        </mxCell>
        <mxCell id="kjcYXcIze7tY7zo2vyRR-33" value="Cidade" style="ellipse;whiteSpace=wrap;html=1;flipV=1;fontSize=10;fontStyle=0;flipH=0;" parent="1" vertex="1">
          <mxGeometry x="657" y="1100" width="70" height="40" as="geometry" />
        </mxCell>
        <mxCell id="xNAhnkP9YiVKi_0hHKyy-3" style="edgeStyle=none;shape=link;rounded=0;orthogonalLoop=1;jettySize=auto;html=1;exitX=0.5;exitY=0;exitDx=0;exitDy=0;" edge="1" parent="1" source="kjcYXcIze7tY7zo2vyRR-34" target="kjcYXcIze7tY7zo2vyRR-39">
          <mxGeometry relative="1" as="geometry" />
        </mxCell>
        <mxCell id="kjcYXcIze7tY7zo2vyRR-34" value="Estado" style="ellipse;whiteSpace=wrap;html=1;flipV=1;fontSize=10;fontStyle=0;flipH=0;" parent="1" vertex="1">
          <mxGeometry x="566" y="1100" width="70" height="40" as="geometry" />
        </mxCell>
        <mxCell id="xNAhnkP9YiVKi_0hHKyy-9" style="edgeStyle=orthogonalEdgeStyle;shape=link;rounded=0;orthogonalLoop=1;jettySize=auto;html=1;exitX=0;exitY=0;exitDx=0;exitDy=0;entryX=1;entryY=0.5;entryDx=0;entryDy=0;" edge="1" parent="1" source="kjcYXcIze7tY7zo2vyRR-36" target="kjcYXcIze7tY7zo2vyRR-39">
          <mxGeometry relative="1" as="geometry">
            <Array as="points">
              <mxPoint x="790" y="1106" />
              <mxPoint x="790" y="1060" />
              <mxPoint x="730" y="1060" />
              <mxPoint x="730" y="1000" />
            </Array>
          </mxGeometry>
        </mxCell>
        <mxCell id="kjcYXcIze7tY7zo2vyRR-36" value="ReferÃªncia" style="ellipse;whiteSpace=wrap;html=1;flipV=1;fontSize=10;fontStyle=0;flipH=0;" parent="1" vertex="1">
          <mxGeometry x="840" y="1100" width="70" height="40" as="geometry" />
        </mxCell>
        <mxCell id="xNAhnkP9YiVKi_0hHKyy-7" style="edgeStyle=orthogonalEdgeStyle;shape=link;rounded=0;orthogonalLoop=1;jettySize=auto;html=1;exitX=0;exitY=0.5;exitDx=0;exitDy=0;entryX=1;entryY=0.5;entryDx=0;entryDy=0;" edge="1" parent="1" source="kjcYXcIze7tY7zo2vyRR-37" target="kjcYXcIze7tY7zo2vyRR-39">
          <mxGeometry relative="1" as="geometry" />
        </mxCell>
        <mxCell id="kjcYXcIze7tY7zo2vyRR-37" value="&lt;div&gt;Criado Em&lt;/div&gt;" style="ellipse;whiteSpace=wrap;html=1;flipV=1;fontSize=10;fontStyle=0;flipH=0;" parent="1" vertex="1">
          <mxGeometry x="840" y="1040" width="70" height="40" as="geometry" />
        </mxCell>
        <mxCell id="xNAhnkP9YiVKi_0hHKyy-6" style="edgeStyle=orthogonalEdgeStyle;shape=link;rounded=0;orthogonalLoop=1;jettySize=auto;html=1;exitX=0;exitY=0.5;exitDx=0;exitDy=0;entryX=1;entryY=0.5;entryDx=0;entryDy=0;" edge="1" parent="1" source="kjcYXcIze7tY7zo2vyRR-38" target="kjcYXcIze7tY7zo2vyRR-39">
          <mxGeometry relative="1" as="geometry" />
        </mxCell>
        <mxCell id="kjcYXcIze7tY7zo2vyRR-38" value="&lt;div&gt;Atualizado Em&lt;/div&gt;" style="ellipse;whiteSpace=wrap;html=1;flipV=1;fontSize=10;fontStyle=0;flipH=0;" parent="1" vertex="1">
          <mxGeometry x="840" y="980" width="70" height="40" as="geometry" />
        </mxCell>
        <mxCell id="kjcYXcIze7tY7zo2vyRR-39" value="EndereÃ§os" style="rounded=0;whiteSpace=wrap;html=1;" parent="1" vertex="1">
          <mxGeometry x="500" y="970" width="120" height="60" as="geometry" />
        </mxCell>
        <mxCell id="kjcYXcIze7tY7zo2vyRR-35" value="ObservaÃ§Ã£o" style="ellipse;whiteSpace=wrap;html=1;flipV=1;fontSize=10;fontStyle=0;flipH=0;" parent="1" vertex="1">
          <mxGeometry x="749" y="1100" width="70" height="40" as="geometry" />
        </mxCell>
        <mxCell id="xNAhnkP9YiVKi_0hHKyy-11" style="edgeStyle=orthogonalEdgeStyle;shape=link;rounded=0;orthogonalLoop=1;jettySize=auto;html=1;exitX=0.5;exitY=0;exitDx=0;exitDy=0;entryX=0.75;entryY=1;entryDx=0;entryDy=0;" edge="1" parent="1" source="xNAhnkP9YiVKi_0hHKyy-10" target="kjcYXcIze7tY7zo2vyRR-1">
          <mxGeometry relative="1" as="geometry" />
        </mxCell>
        <mxCell id="xNAhnkP9YiVKi_0hHKyy-13" value="1" style="edgeLabel;html=1;align=center;verticalAlign=middle;resizable=0;points=[];fontSize=25;" vertex="1" connectable="0" parent="xNAhnkP9YiVKi_0hHKyy-11">
          <mxGeometry x="0.1051" y="2" relative="1" as="geometry">
            <mxPoint x="1" as="offset" />
          </mxGeometry>
        </mxCell>
        <mxCell id="xNAhnkP9YiVKi_0hHKyy-12" style="edgeStyle=orthogonalEdgeStyle;shape=link;rounded=0;orthogonalLoop=1;jettySize=auto;html=1;exitX=0.5;exitY=1;exitDx=0;exitDy=0;entryX=0.25;entryY=0;entryDx=0;entryDy=0;" edge="1" parent="1" source="xNAhnkP9YiVKi_0hHKyy-10" target="kjcYXcIze7tY7zo2vyRR-39">
          <mxGeometry relative="1" as="geometry">
            <Array as="points">
              <mxPoint x="434" y="880" />
              <mxPoint x="530" y="880" />
            </Array>
          </mxGeometry>
        </mxCell>
        <mxCell id="xNAhnkP9YiVKi_0hHKyy-16" value="N" style="edgeLabel;html=1;align=center;verticalAlign=middle;resizable=0;points=[];fontSize=25;" vertex="1" connectable="0" parent="xNAhnkP9YiVKi_0hHKyy-12">
          <mxGeometry x="0.0004" y="2" relative="1" as="geometry">
            <mxPoint as="offset" />
          </mxGeometry>
        </mxCell>
        <mxCell id="xNAhnkP9YiVKi_0hHKyy-10" value="Tem" style="rhombus;whiteSpace=wrap;html=1;" vertex="1" parent="1">
          <mxGeometry x="394" y="760" width="80" height="52" as="geometry" />
        </mxCell>
        <mxCell id="xNAhnkP9YiVKi_0hHKyy-49" style="edgeStyle=orthogonalEdgeStyle;shape=link;rounded=0;orthogonalLoop=1;jettySize=auto;html=1;exitX=1;exitY=0.5;exitDx=0;exitDy=0;" edge="1" parent="1" source="xNAhnkP9YiVKi_0hHKyy-18">
          <mxGeometry relative="1" as="geometry">
            <mxPoint x="600" y="193" as="targetPoint" />
          </mxGeometry>
        </mxCell>
        <mxCell id="xNAhnkP9YiVKi_0hHKyy-18" value="SKU Filho" style="ellipse;whiteSpace=wrap;html=1;flipV=0;fontSize=10;fontStyle=4;flipH=0;" vertex="1" parent="1">
          <mxGeometry x="314.5" y="172.57" width="70" height="40" as="geometry" />
        </mxCell>
        <mxCell id="xNAhnkP9YiVKi_0hHKyy-48" style="edgeStyle=orthogonalEdgeStyle;shape=link;rounded=0;orthogonalLoop=1;jettySize=auto;html=1;exitX=1;exitY=0.5;exitDx=0;exitDy=0;entryX=-0.004;entryY=0.224;entryDx=0;entryDy=0;entryPerimeter=0;" edge="1" parent="1" source="xNAhnkP9YiVKi_0hHKyy-22" target="xNAhnkP9YiVKi_0hHKyy-38">
          <mxGeometry relative="1" as="geometry">
            <Array as="points">
              <mxPoint x="445" y="133" />
              <mxPoint x="445" y="143" />
              <mxPoint x="505" y="143" />
              <mxPoint x="505" y="193" />
            </Array>
          </mxGeometry>
        </mxCell>
        <mxCell id="xNAhnkP9YiVKi_0hHKyy-22" value="SKU Pai" style="ellipse;whiteSpace=wrap;html=1;flipV=0;fontSize=10;fontStyle=0;flipH=0;" vertex="1" parent="1">
          <mxGeometry x="314.5" y="112.57" width="70" height="40" as="geometry" />
        </mxCell>
        <mxCell id="xNAhnkP9YiVKi_0hHKyy-51" style="edgeStyle=none;shape=link;rounded=0;orthogonalLoop=1;jettySize=auto;html=1;exitX=0.5;exitY=1;exitDx=0;exitDy=0;entryX=0;entryY=0.224;entryDx=0;entryDy=0;entryPerimeter=0;" edge="1" parent="1" source="xNAhnkP9YiVKi_0hHKyy-23" target="xNAhnkP9YiVKi_0hHKyy-38">
          <mxGeometry relative="1" as="geometry" />
        </mxCell>
        <mxCell id="xNAhnkP9YiVKi_0hHKyy-23" value="Artigo" style="ellipse;whiteSpace=wrap;html=1;flipV=1;fontSize=10;fontStyle=0;flipH=0;" vertex="1" parent="1">
          <mxGeometry x="498.5" y="52.57" width="70" height="40" as="geometry" />
        </mxCell>
        <mxCell id="xNAhnkP9YiVKi_0hHKyy-52" style="edgeStyle=none;shape=link;rounded=0;orthogonalLoop=1;jettySize=auto;html=1;exitX=0.5;exitY=1;exitDx=0;exitDy=0;entryX=0.25;entryY=0;entryDx=0;entryDy=0;" edge="1" parent="1" source="xNAhnkP9YiVKi_0hHKyy-25" target="xNAhnkP9YiVKi_0hHKyy-38">
          <mxGeometry relative="1" as="geometry" />
        </mxCell>
        <mxCell id="xNAhnkP9YiVKi_0hHKyy-25" value="Marca" style="ellipse;whiteSpace=wrap;html=1;flipV=1;fontSize=10;fontStyle=0;flipH=0;" vertex="1" parent="1">
          <mxGeometry x="590.5" y="52.57" width="70" height="40" as="geometry" />
        </mxCell>
        <mxCell id="xNAhnkP9YiVKi_0hHKyy-53" style="edgeStyle=none;shape=link;rounded=0;orthogonalLoop=1;jettySize=auto;html=1;exitX=0.5;exitY=1;exitDx=0;exitDy=0;entryX=0.75;entryY=0;entryDx=0;entryDy=0;" edge="1" parent="1" source="xNAhnkP9YiVKi_0hHKyy-27" target="xNAhnkP9YiVKi_0hHKyy-38">
          <mxGeometry relative="1" as="geometry" />
        </mxCell>
        <mxCell id="xNAhnkP9YiVKi_0hHKyy-27" value="Cor" style="ellipse;whiteSpace=wrap;html=1;flipV=1;fontSize=10;fontStyle=0;flipH=0;" vertex="1" parent="1">
          <mxGeometry x="682.5" y="52.57" width="70" height="40" as="geometry" />
        </mxCell>
        <mxCell id="xNAhnkP9YiVKi_0hHKyy-54" style="edgeStyle=none;shape=link;rounded=0;orthogonalLoop=1;jettySize=auto;html=1;exitX=0.5;exitY=1;exitDx=0;exitDy=0;entryX=1.005;entryY=0.216;entryDx=0;entryDy=0;entryPerimeter=0;" edge="1" parent="1" source="xNAhnkP9YiVKi_0hHKyy-31" target="xNAhnkP9YiVKi_0hHKyy-38">
          <mxGeometry relative="1" as="geometry" />
        </mxCell>
        <mxCell id="xNAhnkP9YiVKi_0hHKyy-31" value="Tamanho" style="ellipse;whiteSpace=wrap;html=1;flipV=1;fontSize=10;fontStyle=0;flipH=0;" vertex="1" parent="1">
          <mxGeometry x="774.5" y="52.57" width="70" height="40" as="geometry" />
        </mxCell>
        <mxCell id="xNAhnkP9YiVKi_0hHKyy-57" style="edgeStyle=orthogonalEdgeStyle;shape=link;rounded=0;orthogonalLoop=1;jettySize=auto;html=1;exitX=0;exitY=0.5;exitDx=0;exitDy=0;entryX=0.987;entryY=0.219;entryDx=0;entryDy=0;entryPerimeter=0;" edge="1" parent="1" source="xNAhnkP9YiVKi_0hHKyy-33" target="xNAhnkP9YiVKi_0hHKyy-38">
          <mxGeometry relative="1" as="geometry">
            <Array as="points">
              <mxPoint x="906" y="133" />
              <mxPoint x="906" y="153" />
              <mxPoint x="840" y="153" />
              <mxPoint x="840" y="193" />
            </Array>
          </mxGeometry>
        </mxCell>
        <mxCell id="xNAhnkP9YiVKi_0hHKyy-33" value="&lt;div&gt;Criado Em&lt;/div&gt;" style="ellipse;whiteSpace=wrap;html=1;flipV=1;fontSize=10;fontStyle=0;flipH=0;" vertex="1" parent="1">
          <mxGeometry x="954.5" y="112.57" width="70" height="40" as="geometry" />
        </mxCell>
        <mxCell id="xNAhnkP9YiVKi_0hHKyy-56" style="edgeStyle=orthogonalEdgeStyle;shape=link;rounded=0;orthogonalLoop=1;jettySize=auto;html=1;exitX=0;exitY=0.5;exitDx=0;exitDy=0;entryX=0.997;entryY=0.219;entryDx=0;entryDy=0;entryPerimeter=0;" edge="1" parent="1" source="xNAhnkP9YiVKi_0hHKyy-35" target="xNAhnkP9YiVKi_0hHKyy-38">
          <mxGeometry relative="1" as="geometry">
            <Array as="points">
              <mxPoint x="906" y="73" />
              <mxPoint x="906" y="153" />
              <mxPoint x="840" y="153" />
              <mxPoint x="840" y="193" />
            </Array>
          </mxGeometry>
        </mxCell>
        <mxCell id="xNAhnkP9YiVKi_0hHKyy-35" value="PreÃ§o Promo." style="ellipse;whiteSpace=wrap;html=1;flipV=1;fontSize=10;fontStyle=0;flipH=0;" vertex="1" parent="1">
          <mxGeometry x="954.5" y="52.57" width="70" height="40" as="geometry" />
        </mxCell>
        <mxCell id="xNAhnkP9YiVKi_0hHKyy-96" style="edgeStyle=orthogonalEdgeStyle;shape=link;rounded=0;orthogonalLoop=1;jettySize=auto;html=1;exitX=1;exitY=0.75;exitDx=0;exitDy=0;entryX=0;entryY=0.5;entryDx=0;entryDy=0;" edge="1" parent="1" source="xNAhnkP9YiVKi_0hHKyy-38" target="xNAhnkP9YiVKi_0hHKyy-95">
          <mxGeometry relative="1" as="geometry" />
        </mxCell>
        <mxCell id="xNAhnkP9YiVKi_0hHKyy-98" value="1" style="edgeLabel;html=1;align=center;verticalAlign=middle;resizable=0;points=[];fontSize=25;" vertex="1" connectable="0" parent="xNAhnkP9YiVKi_0hHKyy-96">
          <mxGeometry x="-0.0025" y="1" relative="1" as="geometry">
            <mxPoint as="offset" />
          </mxGeometry>
        </mxCell>
        <mxCell id="xNAhnkP9YiVKi_0hHKyy-38" value="Produtos" style="rounded=0;whiteSpace=wrap;html=1;" vertex="1" parent="1">
          <mxGeometry x="607" y="180" width="120" height="60" as="geometry" />
        </mxCell>
        <mxCell id="xNAhnkP9YiVKi_0hHKyy-39" value="PreÃ§o" style="ellipse;whiteSpace=wrap;html=1;flipV=1;fontSize=10;fontStyle=0;flipH=0;" vertex="1" parent="1">
          <mxGeometry x="865.5" y="52.57" width="70" height="40" as="geometry" />
        </mxCell>
        <mxCell id="xNAhnkP9YiVKi_0hHKyy-58" style="edgeStyle=orthogonalEdgeStyle;shape=link;rounded=0;orthogonalLoop=1;jettySize=auto;html=1;exitX=0;exitY=0.5;exitDx=0;exitDy=0;entryX=1.002;entryY=0.216;entryDx=0;entryDy=0;entryPerimeter=0;" edge="1" parent="1" source="xNAhnkP9YiVKi_0hHKyy-44" target="xNAhnkP9YiVKi_0hHKyy-38">
          <mxGeometry relative="1" as="geometry" />
        </mxCell>
        <mxCell id="xNAhnkP9YiVKi_0hHKyy-44" value="&lt;div&gt;Atualizado Em&lt;br&gt;&lt;/div&gt;" style="ellipse;whiteSpace=wrap;html=1;flipV=1;fontSize=10;fontStyle=0;flipH=0;" vertex="1" parent="1">
          <mxGeometry x="954.5" y="172.57" width="70" height="40" as="geometry" />
        </mxCell>
        <mxCell id="xNAhnkP9YiVKi_0hHKyy-46" value="" style="group" vertex="1" connectable="0" parent="1">
          <mxGeometry x="310" y="50" width="79" height="45.14" as="geometry" />
        </mxCell>
        <mxCell id="xNAhnkP9YiVKi_0hHKyy-45" value="Fotos" style="ellipse;whiteSpace=wrap;html=1;flipV=0;fontSize=10;fontStyle=0;flipH=0;strokeColor=default;" vertex="1" parent="xNAhnkP9YiVKi_0hHKyy-46">
          <mxGeometry width="79" height="45.14" as="geometry" />
        </mxCell>
        <mxCell id="xNAhnkP9YiVKi_0hHKyy-29" value="Fotos" style="ellipse;whiteSpace=wrap;html=1;flipV=0;fontSize=10;fontStyle=0;flipH=0;strokeColor=default;" vertex="1" parent="xNAhnkP9YiVKi_0hHKyy-46">
          <mxGeometry x="4.5" y="2.5700000000000003" width="70" height="40" as="geometry" />
        </mxCell>
        <mxCell id="xNAhnkP9YiVKi_0hHKyy-47" style="edgeStyle=orthogonalEdgeStyle;shape=link;rounded=0;orthogonalLoop=1;jettySize=auto;html=1;exitX=1;exitY=0.5;exitDx=0;exitDy=0;entryX=0.004;entryY=0.204;entryDx=0;entryDy=0;entryPerimeter=0;" edge="1" parent="1" source="xNAhnkP9YiVKi_0hHKyy-45" target="xNAhnkP9YiVKi_0hHKyy-38">
          <mxGeometry relative="1" as="geometry">
            <Array as="points">
              <mxPoint x="445" y="73" />
              <mxPoint x="445" y="143" />
              <mxPoint x="505" y="143" />
              <mxPoint x="505" y="192" />
            </Array>
          </mxGeometry>
        </mxCell>
        <mxCell id="xNAhnkP9YiVKi_0hHKyy-20" value="Nome" style="ellipse;whiteSpace=wrap;html=1;flipV=1;fontSize=10;fontStyle=0;flipH=0;" vertex="1" parent="1">
          <mxGeometry x="407.5" y="52.57" width="70" height="40" as="geometry" />
        </mxCell>
        <mxCell id="xNAhnkP9YiVKi_0hHKyy-84" style="edgeStyle=orthogonalEdgeStyle;shape=link;rounded=0;orthogonalLoop=1;jettySize=auto;html=1;exitX=1;exitY=0.5;exitDx=0;exitDy=0;entryX=0;entryY=0.25;entryDx=0;entryDy=0;" edge="1" parent="1" source="xNAhnkP9YiVKi_0hHKyy-60" target="xNAhnkP9YiVKi_0hHKyy-75">
          <mxGeometry relative="1" as="geometry">
            <Array as="points">
              <mxPoint x="1250" y="169" />
              <mxPoint x="1250" y="195" />
            </Array>
          </mxGeometry>
        </mxCell>
        <mxCell id="xNAhnkP9YiVKi_0hHKyy-60" value="ID" style="ellipse;whiteSpace=wrap;html=1;flipV=0;fontSize=10;fontStyle=4;flipH=0;" vertex="1" parent="1">
          <mxGeometry x="1097.25" y="149" width="70" height="40" as="geometry" />
        </mxCell>
        <mxCell id="xNAhnkP9YiVKi_0hHKyy-62" value="SKU Filho" style="ellipse;whiteSpace=wrap;html=1;flipV=0;fontSize=10;fontStyle=0;flipH=0;" vertex="1" parent="1">
          <mxGeometry x="1572.75" y="149" width="70" height="40" as="geometry" />
        </mxCell>
        <mxCell id="xNAhnkP9YiVKi_0hHKyy-85" style="edgeStyle=orthogonalEdgeStyle;shape=link;rounded=0;orthogonalLoop=1;jettySize=auto;html=1;exitX=1;exitY=1;exitDx=0;exitDy=0;entryX=0;entryY=0.25;entryDx=0;entryDy=0;" edge="1" parent="1" source="xNAhnkP9YiVKi_0hHKyy-64" target="xNAhnkP9YiVKi_0hHKyy-75">
          <mxGeometry relative="1" as="geometry">
            <Array as="points">
              <mxPoint x="1180" y="119" />
              <mxPoint x="1180" y="140" />
              <mxPoint x="1250" y="140" />
              <mxPoint x="1250" y="195" />
            </Array>
          </mxGeometry>
        </mxCell>
        <mxCell id="xNAhnkP9YiVKi_0hHKyy-64" value="Total" style="ellipse;whiteSpace=wrap;html=1;flipV=1;fontSize=10;fontStyle=0;flipH=0;" vertex="1" parent="1">
          <mxGeometry x="1097.25" y="85" width="70" height="40" as="geometry" />
        </mxCell>
        <mxCell id="xNAhnkP9YiVKi_0hHKyy-87" style="edgeStyle=orthogonalEdgeStyle;shape=link;rounded=0;orthogonalLoop=1;jettySize=auto;html=1;exitX=0.5;exitY=1;exitDx=0;exitDy=0;entryX=0.75;entryY=0;entryDx=0;entryDy=0;" edge="1" parent="1" source="xNAhnkP9YiVKi_0hHKyy-66" target="xNAhnkP9YiVKi_0hHKyy-75">
          <mxGeometry relative="1" as="geometry" />
        </mxCell>
        <mxCell id="xNAhnkP9YiVKi_0hHKyy-66" value="LocalizaÃ§Ã£o" style="ellipse;whiteSpace=wrap;html=1;flipV=1;fontSize=10;fontStyle=0;flipH=0;" vertex="1" parent="1">
          <mxGeometry x="1382.25" y="85" width="70" height="40" as="geometry" />
        </mxCell>
        <mxCell id="xNAhnkP9YiVKi_0hHKyy-88" style="edgeStyle=orthogonalEdgeStyle;shape=link;rounded=0;orthogonalLoop=1;jettySize=auto;html=1;exitX=0.5;exitY=1;exitDx=0;exitDy=0;entryX=0.987;entryY=0.165;entryDx=0;entryDy=0;entryPerimeter=0;" edge="1" parent="1" source="xNAhnkP9YiVKi_0hHKyy-72" target="xNAhnkP9YiVKi_0hHKyy-75">
          <mxGeometry relative="1" as="geometry">
            <Array as="points">
              <mxPoint x="1509" y="190" />
            </Array>
          </mxGeometry>
        </mxCell>
        <mxCell id="xNAhnkP9YiVKi_0hHKyy-72" value="&lt;div&gt;Criado Em&lt;/div&gt;" style="ellipse;whiteSpace=wrap;html=1;flipV=1;fontSize=10;fontStyle=0;flipH=0;" vertex="1" parent="1">
          <mxGeometry x="1477.25" y="85" width="70" height="40" as="geometry" />
        </mxCell>
        <mxCell id="xNAhnkP9YiVKi_0hHKyy-75" value="Estoque" style="rounded=0;whiteSpace=wrap;html=1;" vertex="1" parent="1">
          <mxGeometry x="1310" y="180" width="120" height="60" as="geometry" />
        </mxCell>
        <mxCell id="xNAhnkP9YiVKi_0hHKyy-89" style="edgeStyle=orthogonalEdgeStyle;shape=link;rounded=0;orthogonalLoop=1;jettySize=auto;html=1;exitX=0;exitY=1;exitDx=0;exitDy=0;" edge="1" parent="1" source="xNAhnkP9YiVKi_0hHKyy-78">
          <mxGeometry relative="1" as="geometry">
            <mxPoint x="1440" y="190" as="targetPoint" />
            <Array as="points">
              <mxPoint x="1565" y="119" />
              <mxPoint x="1565" y="140" />
              <mxPoint x="1510" y="140" />
              <mxPoint x="1510" y="190" />
            </Array>
          </mxGeometry>
        </mxCell>
        <mxCell id="xNAhnkP9YiVKi_0hHKyy-78" value="&lt;div&gt;Atualizado Em&lt;br&gt;&lt;/div&gt;" style="ellipse;whiteSpace=wrap;html=1;flipV=1;fontSize=10;fontStyle=0;flipH=0;" vertex="1" parent="1">
          <mxGeometry x="1572.75" y="85" width="70" height="40" as="geometry" />
        </mxCell>
        <mxCell id="xNAhnkP9YiVKi_0hHKyy-92" style="edgeStyle=orthogonalEdgeStyle;shape=link;rounded=0;orthogonalLoop=1;jettySize=auto;html=1;exitX=0.721;exitY=0.082;exitDx=0;exitDy=0;entryX=0;entryY=0.25;entryDx=0;entryDy=0;exitPerimeter=0;" edge="1" parent="1" source="xNAhnkP9YiVKi_0hHKyy-83" target="xNAhnkP9YiVKi_0hHKyy-75">
          <mxGeometry relative="1" as="geometry">
            <Array as="points">
              <mxPoint x="1251" y="125" />
              <mxPoint x="1250" y="125" />
              <mxPoint x="1250" y="195" />
            </Array>
          </mxGeometry>
        </mxCell>
        <mxCell id="xNAhnkP9YiVKi_0hHKyy-83" value="Reservado" style="ellipse;whiteSpace=wrap;html=1;flipV=1;fontSize=10;fontStyle=0;flipH=0;" vertex="1" parent="1">
          <mxGeometry x="1192.25" y="85" width="70" height="40" as="geometry" />
        </mxCell>
        <mxCell id="xNAhnkP9YiVKi_0hHKyy-86" style="edgeStyle=orthogonalEdgeStyle;shape=link;rounded=0;orthogonalLoop=1;jettySize=auto;html=1;exitX=0.5;exitY=1;exitDx=0;exitDy=0;entryX=0.25;entryY=0;entryDx=0;entryDy=0;" edge="1" parent="1" source="xNAhnkP9YiVKi_0hHKyy-81" target="xNAhnkP9YiVKi_0hHKyy-75">
          <mxGeometry relative="1" as="geometry" />
        </mxCell>
        <mxCell id="xNAhnkP9YiVKi_0hHKyy-81" value="DisponÃ­vel" style="ellipse;whiteSpace=wrap;html=1;flipV=0;fontSize=10;fontStyle=0;flipH=0;strokeColor=default;dashed=1;" vertex="1" parent="1">
          <mxGeometry x="1287.25" y="85.14000000000001" width="70" height="40" as="geometry" />
        </mxCell>
        <mxCell id="xNAhnkP9YiVKi_0hHKyy-93" style="edgeStyle=orthogonalEdgeStyle;shape=link;rounded=0;orthogonalLoop=1;jettySize=auto;html=1;exitX=0;exitY=0.5;exitDx=0;exitDy=0;entryX=1.01;entryY=0.172;entryDx=0;entryDy=0;entryPerimeter=0;" edge="1" parent="1" source="xNAhnkP9YiVKi_0hHKyy-62" target="xNAhnkP9YiVKi_0hHKyy-75">
          <mxGeometry relative="1" as="geometry">
            <Array as="points">
              <mxPoint x="1510" y="169" />
              <mxPoint x="1510" y="190" />
            </Array>
          </mxGeometry>
        </mxCell>
        <mxCell id="xNAhnkP9YiVKi_0hHKyy-97" style="edgeStyle=orthogonalEdgeStyle;shape=link;rounded=0;orthogonalLoop=1;jettySize=auto;html=1;exitX=1;exitY=0.5;exitDx=0;exitDy=0;entryX=0;entryY=0.75;entryDx=0;entryDy=0;" edge="1" parent="1" source="xNAhnkP9YiVKi_0hHKyy-95" target="xNAhnkP9YiVKi_0hHKyy-75">
          <mxGeometry relative="1" as="geometry" />
        </mxCell>
        <mxCell id="xNAhnkP9YiVKi_0hHKyy-99" value="1" style="edgeLabel;html=1;align=center;verticalAlign=middle;resizable=0;points=[];fontSize=25;" vertex="1" connectable="0" parent="xNAhnkP9YiVKi_0hHKyy-97">
          <mxGeometry x="-0.032" y="-2" relative="1" as="geometry">
            <mxPoint as="offset" />
          </mxGeometry>
        </mxCell>
        <mxCell id="xNAhnkP9YiVKi_0hHKyy-95" value="Tem" style="rhombus;whiteSpace=wrap;html=1;" vertex="1" parent="1">
          <mxGeometry x="990" y="294" width="80" height="52" as="geometry" />
        </mxCell>
        <mxCell id="xNAhnkP9YiVKi_0hHKyy-100" value="Vendas" style="rounded=0;whiteSpace=wrap;html=1;" vertex="1" parent="1">
          <mxGeometry x="760" y="549" width="120" height="60" as="geometry" />
        </mxCell>
        <mxCell id="xNAhnkP9YiVKi_0hHKyy-101" value="Entregas" style="rounded=0;whiteSpace=wrap;html=1;" vertex="1" parent="1">
          <mxGeometry x="1420" y="467" width="120" height="60" as="geometry" />
        </mxCell>
        <mxCell id="xNAhnkP9YiVKi_0hHKyy-102" value="Pagamentos" style="rounded=0;whiteSpace=wrap;html=1;" vertex="1" parent="1">
          <mxGeometry x="1420" y="700" width="120" height="60" as="geometry" />
        </mxCell>
        <mxCell id="xNAhnkP9YiVKi_0hHKyy-103" value="Faturamento" style="rounded=0;whiteSpace=wrap;html=1;" vertex="1" parent="1">
          <mxGeometry x="1220" y="970" width="120" height="60" as="geometry" />
        </mxCell>
      </root>
    </mxGraphModel>
  </diagram>
</mxfile>
